<svg width="38" height="20" viewBox="0 0 38 20" fill="none" xmlns="http://www.w3.org/2000/svg">
<path d="M0.680045 14.25V18C0.680048 18.3315 0.811746 18.6495 1.04617 18.8839C1.28059 19.1183 1.59853 19.25 1.93005 19.25H29.46C30.8056 19.2562 32.1169 18.8253 33.1965 18.022C34.2761 17.2188 35.0657 16.0866 35.4464 14.796L37.6446 7.46838C37.7566 7.09509 37.7797 6.70079 37.7122 6.31697C37.6447 5.93314 37.4883 5.57041 37.2557 5.25774C37.0231 4.94507 36.7206 4.69111 36.3723 4.51614C36.0241 4.34117 35.6398 4.25003 35.25 4.25H32.555C32.3718 4.25 32.1908 4.29029 32.0249 4.36801C31.8589 4.44573 31.7121 4.55899 31.5948 4.69975L28.8446 8H26.1644L27.5676 3.79056C27.6928 3.41475 27.727 3.01455 27.6672 2.62294C27.6075 2.23134 27.4555 1.85954 27.2239 1.53818C26.9923 1.21682 26.6876 0.955107 26.335 0.774606C25.9823 0.594105 25.5919 0.499984 25.1957 0.5H22.555C22.3817 0.5 22.2103 0.536035 22.0517 0.605816C21.8931 0.675598 21.7507 0.777601 21.6336 0.90535L15.1301 8H6.93005C5.27302 8.00188 3.6844 8.66097 2.51271 9.83266C1.34101 11.0044 0.681928 12.593 0.680045 14.25ZM3.18005 14.25C3.18117 13.2558 3.57662 12.3026 4.27964 11.5996C4.98265 10.8966 5.93583 10.5011 6.93005 10.5H15.68C15.8533 10.5 16.0248 10.464 16.1834 10.3942C16.342 10.3244 16.4844 10.2224 16.6015 10.0947L23.105 3H25.1957L23.2441 8.85472C23.1815 9.04263 23.1644 9.24272 23.1943 9.43853C23.2242 9.63433 23.3001 9.82023 23.416 9.98091C23.5318 10.1416 23.6841 10.2724 23.8604 10.3627C24.0367 10.4529 24.232 10.5 24.43 10.5H29.43C29.6133 10.5 29.7943 10.4597 29.9602 10.382C30.1262 10.3043 30.273 10.191 30.3903 10.0502L33.1405 6.75H35.25L35.2537 6.75016L33.0517 14.0776C32.8233 14.852 32.3496 15.5313 31.7018 16.0132C31.0541 16.4952 30.2673 16.7537 29.46 16.75H3.18005V14.25Z" fill="#DCDCDC"/>
</svg>
