<svg width="38" height="20" viewBox="0 0 38 20" fill="none" xmlns="http://www.w3.org/2000/svg">
<path d="M37.75 14.25V18C37.75 18.3315 37.6183 18.6495 37.3839 18.8839C37.1495 19.1183 36.8315 19.25 36.5 19.25H8.97009C7.62445 19.2562 6.31317 18.8253 5.23355 18.022C4.15393 17.2188 3.36435 16.0866 2.98361 14.796L0.785431 7.46838C0.673475 7.09509 0.650335 6.70079 0.717861 6.31697C0.785386 5.93314 0.941706 5.57041 1.17434 5.25774C1.40698 4.94507 1.70949 4.69111 2.05772 4.51614C2.40596 4.34117 2.79028 4.25003 3.18 4.25H5.875C6.05824 4.25 6.23923 4.29029 6.40517 4.36801C6.57111 4.44573 6.71793 4.55899 6.83524 4.69975L9.58548 8H12.2657L10.8625 3.79056C10.7372 3.41475 10.7031 3.01455 10.7628 2.62294C10.8226 2.23134 10.9745 1.85954 11.2061 1.53818C11.4378 1.21682 11.7425 0.955107 12.0951 0.774606C12.4477 0.594105 12.8382 0.499984 13.2343 0.5H15.875C16.0483 0.5 16.2197 0.536035 16.3783 0.605816C16.537 0.675598 16.6794 0.777601 16.7965 0.90535L23.2999 8H31.5C33.157 8.00188 34.7456 8.66097 35.9173 9.83266C37.089 11.0044 37.7481 12.593 37.75 14.25ZM35.25 14.25C35.2489 13.2558 34.8534 12.3026 34.1504 11.5996C33.4474 10.8966 32.4942 10.5011 31.5 10.5H22.75C22.5767 10.5 22.4053 10.464 22.2467 10.3942C22.088 10.3244 21.9456 10.2224 21.8285 10.0947L15.3251 3H13.2343L15.1859 8.85472C15.2485 9.04263 15.2656 9.24272 15.2358 9.43853C15.2059 9.63433 15.1299 9.82023 15.0141 9.98091C14.8983 10.1416 14.7459 10.2724 14.5696 10.3627C14.3933 10.4529 14.1981 10.5 14 10.5H9C8.81676 10.5 8.63577 10.4597 8.46983 10.382C8.30389 10.3043 8.15707 10.191 8.03976 10.0502L5.28952 6.75H3.18L3.17634 6.75016L5.37833 14.0776C5.60674 14.852 6.08046 15.5313 6.72821 16.0132C7.37596 16.4952 8.16272 16.7537 8.97009 16.75H35.25V14.25Z" fill="#DCDCDC"/>
</svg>
