<svg width="40" height="40" viewBox="0 0 40 40" fill="none" xmlns="http://www.w3.org/2000/svg">
<path d="M20 0.0223389C8.95399 0.0223389 0 8.96633 0 19.9984C0 31.033 8.95399 39.9777 20 39.9777C31.0453 39.9777 40 31.033 40 19.9984C40 8.96633 31.0453 0.0223389 20 0.0223389ZM17.4407 1.55365C15.632 3.43365 14.1033 5.58162 12.9073 7.92633C11.3133 7.26835 9.83399 6.39567 8.49797 5.34495C11.032 3.35901 14.0933 2.01299 17.4407 1.55365ZM7.45797 6.22901C8.92595 7.41436 10.5626 8.3943 12.3307 9.13038C10.9286 12.261 10.1073 15.7044 10.018 19.3337H1.36601C1.55065 14.1383 3.86399 9.49299 7.45797 6.22901ZM1.36601 20.665H10.0173C10.108 24.343 10.9493 27.8316 12.386 30.995C10.67 31.751 9.07935 32.7437 7.65601 33.9397C3.95203 30.6657 1.55399 25.955 1.36601 20.665ZM8.70797 34.8103C9.99863 33.7544 11.4293 32.875 12.9707 32.201C14.1567 34.4944 15.6613 36.5977 17.4367 38.4443C14.1814 37.9963 11.2 36.707 8.70797 34.8103ZM19.3333 38.4336C17.2727 36.501 15.5387 34.2276 14.216 31.7063C15.8313 31.1357 17.548 30.7936 19.3333 30.705V38.4336ZM19.3333 29.363C17.3367 29.457 15.418 29.8423 13.6193 30.493C12.244 27.487 11.4413 24.1656 11.35 20.6643H19.3333V29.363ZM19.3333 19.333H11.35C11.44 15.869 12.2287 12.5823 13.5774 9.60103C15.3934 10.2184 17.3241 10.5803 19.3327 10.645V19.333H19.3333ZM19.3333 9.31502C17.5307 9.25103 15.7973 8.93234 14.162 8.39038C15.4907 5.82907 17.2454 3.52169 19.3333 1.56306V9.31502ZM38.6341 19.333H29.982C29.8913 15.707 29.0601 12.2663 27.642 9.14365C29.4214 8.40633 31.0667 7.41763 32.5433 6.22495C36.1373 9.49031 38.4493 14.1383 38.6341 19.333ZM31.4987 5.34495C30.1533 6.40299 28.6641 7.28234 27.058 7.94299C25.8347 5.57901 24.2687 3.41829 22.4141 1.5343C25.8173 1.97365 28.928 3.33168 31.4987 5.34495ZM20.6667 1.69234C22.7353 3.61901 24.4753 5.88567 25.7993 8.40234C24.1753 8.93633 22.4553 9.25097 20.6667 9.31502V1.69234ZM20.6667 10.6457C22.666 10.5803 24.5867 10.2223 26.394 9.61097C27.7599 12.5843 28.558 15.8716 28.6493 19.3336H20.6667V10.6457ZM20.6667 20.665H28.65C28.5593 24.1097 27.7673 27.3803 26.414 30.3436C24.5993 29.7363 22.672 29.3864 20.6667 29.341V20.665V20.665ZM20.6667 38.3056V30.683C22.462 30.725 24.1893 31.0283 25.8207 31.5563C24.494 34.089 22.7454 36.3684 20.6667 38.3056ZM22.4114 38.465C24.278 36.5697 25.8533 34.3917 27.0807 32.0097C28.6927 32.667 30.186 33.553 31.5367 34.6217C28.9573 36.6523 25.8327 38.023 22.4114 38.465ZM32.58 33.7423C31.0987 32.5376 29.45 31.5383 27.6647 30.8023C29.0693 27.6931 29.892 24.2704 29.9827 20.6644H38.6341C38.45 25.8456 36.1533 30.4797 32.58 33.7423Z" fill="#DCDCDC"/>
</svg>
