<svg width="20" height="25" viewBox="0 0 20 25" fill="none" xmlns="http://www.w3.org/2000/svg">
<path d="M10 13.3333C8.68146 13.3333 7.39253 12.9423 6.2962 12.2098C5.19988 11.4773 4.34539 10.4361 3.84081 9.21789C3.33622 7.99972 3.2042 6.65927 3.46144 5.36607C3.71867 4.07286 4.35361 2.88497 5.28596 1.95262C6.21831 1.02027 7.4062 0.385336 8.6994 0.128101C9.99261 -0.129134 11.3331 0.00288854 12.5512 0.507473C13.7694 1.01206 14.8106 1.86654 15.5431 2.96287C16.2757 4.0592 16.6667 5.34813 16.6667 6.66667C16.6667 8.43478 15.9643 10.1305 14.7141 11.3807C13.4638 12.631 11.7681 13.3333 10 13.3333ZM10 1.66667C9.0111 1.66667 8.0444 1.95991 7.22215 2.50932C6.39991 3.05873 5.75905 3.83962 5.38061 4.75325C5.00217 5.66688 4.90315 6.67222 5.09608 7.64212C5.28901 8.61203 5.76521 9.50294 6.46447 10.2022C7.16373 10.9015 8.05465 11.3777 9.02455 11.5706C9.99446 11.7635 10.9998 11.6645 11.9134 11.2861C12.8271 10.9076 13.6079 10.2668 14.1574 9.44452C14.7068 8.62228 15 7.65558 15 6.66667C15 5.34059 14.4732 4.06882 13.5355 3.13114C12.5979 2.19345 11.3261 1.66667 10 1.66667V1.66667Z" fill="#DCDCDC"/>
<path d="M15.8333 25H4.16667C3.0616 25 2.00179 24.561 1.22039 23.7796C0.438987 22.9982 0 21.9384 0 20.8333V17.5C2.5223e-05 17.3554 0.0376862 17.2132 0.10928 17.0876C0.180874 16.9619 0.283935 16.8571 0.408333 16.7833L4.575 14.2833C4.76299 14.1984 4.97582 14.1861 5.17229 14.249C5.36877 14.3119 5.53493 14.4455 5.63862 14.6238C5.74231 14.8022 5.77616 15.0127 5.73362 15.2145C5.69108 15.4164 5.57518 15.5953 5.40833 15.7166L1.66667 17.975V20.8333C1.66667 21.4964 1.93006 22.1322 2.3989 22.6011C2.86774 23.0699 3.50363 23.3333 4.16667 23.3333H15.8333C16.4964 23.3333 17.1323 23.0699 17.6011 22.6011C18.0699 22.1322 18.3333 21.4964 18.3333 20.8333V17.975L14.575 15.7166C14.4687 15.6686 14.3738 15.5988 14.2962 15.5118C14.2186 15.4248 14.1601 15.3224 14.1245 15.2114C14.089 15.1003 14.0771 14.983 14.0898 14.8671C14.1024 14.7512 14.1392 14.6392 14.1978 14.5384C14.2564 14.4376 14.3355 14.3502 14.43 14.2819C14.5245 14.2136 14.6323 14.1659 14.7464 14.1418C14.8605 14.1178 14.9783 14.118 15.0924 14.1423C15.2064 14.1667 15.314 14.2147 15.4083 14.2833L19.575 16.7833C19.7025 16.855 19.8089 16.9589 19.8835 17.0847C19.9581 17.2105 19.9983 17.3537 20 17.5V20.8333C20 21.9384 19.561 22.9982 18.7796 23.7796C17.9982 24.561 16.9384 25 15.8333 25V25Z" fill="#DCDCDC"/>
</svg>
